<svg id="Group_1213" data-name="Group 1213" xmlns="http://www.w3.org/2000/svg" width="64.803" height="64.803" viewBox="0 0 64.803 64.803">
  <rect id="Rectangle_297" data-name="Rectangle 297" width="64.803" height="64.803" rx="17.28" transform="translate(0)" fill="#ff5023"/>
  <g id="Group_1212" data-name="Group 1212" transform="translate(9.529 10.205)">
    <g id="Group_1209" data-name="Group 1209" transform="translate(2.702 0)">
      <path id="Union_10" data-name="Union 10" d="M2.333,11.942A4.291,4.291,0,0,1,3.513,10.3l0,0A4.256,4.256,0,0,1,6.3,9.258h4.34a1.087,1.087,0,0,1,1.1.95,1.056,1.056,0,0,1-1.049,1.16H6.369a4.316,4.316,0,0,1-1.713-.355h0a3.024,3.024,0,0,0-1.238,1.646,6.322,6.322,0,0,0,2.951.732h4.226a3.138,3.138,0,0,0,3.164-2.924,3.082,3.082,0,0,0-3.074-3.233H6.3A6.269,6.269,0,0,0,2.335,8.64a4.322,4.322,0,0,1-.312-1.617V3.541A1.517,1.517,0,0,1,3.541,2.023h16.83A1.517,1.517,0,0,1,21.888,3.54v8.111c0,5.968,3.344,9.39,9.175,9.39,5.9,0,9.283-3.472,9.283-9.525V3.541a1.519,1.519,0,0,1,1.518-1.517h.169a1.012,1.012,0,0,0,1.011-1.011h0A1.012,1.012,0,0,0,42.032,0h-.168a3.545,3.545,0,0,0-3.541,3.54v7.975c0,4.908-2.51,7.5-7.259,7.5-4.679,0-7.152-2.547-7.152-7.367V3.541A3.541,3.541,0,0,0,20.371,0H3.54A3.54,3.54,0,0,0,0,3.541V7.022a6.33,6.33,0,0,0,.9,3.264A6.256,6.256,0,0,0,0,13.531v6.251a1.041,1.041,0,0,0,.912,1.05,1.012,1.012,0,0,0,1.111-1.007V13.531a4.254,4.254,0,0,1,.306-1.588" fill="#fff"/>
    </g>
    <g id="Group_1211" data-name="Group 1211" transform="translate(0 23.26)">
      <path id="Union_11" data-name="Union 11" d="M26.555,18.292a18.349,18.349,0,0,1-3.462-4.968L21.6,10.159h0a16.46,16.46,0,0,0-3.815-5.865C15.306,2.116,11.395,2.116,7.613,2.116h-6.6a1.012,1.012,0,0,1,0-2.023h6.6c3.963,0,8.455,0,11.508,2.681a15.889,15.889,0,0,1,3.75,5.314,17.928,17.928,0,0,1,3.684-5.246A10.9,10.9,0,0,1,38.38.946a10.2,10.2,0,0,1,6.359,9.409v.272a10.406,10.406,0,0,1-6.359,9.56,11.444,11.444,0,0,1-4.536.946A10.588,10.588,0,0,1,26.555,18.292ZM27.943,4.315a16.036,16.036,0,0,0-3.276,4.706c-.237.478-.468.975-.694,1.469.227.5.458.993.694,1.472a16.986,16.986,0,0,0,3.276,4.856,8.875,8.875,0,0,0,9.635,1.511,8.306,8.306,0,0,0,5.138-7.7v-.272A8.105,8.105,0,0,0,37.578,2.8a9.428,9.428,0,0,0-3.735-.78A8.562,8.562,0,0,0,27.943,4.315ZM5.788,20.93A3.1,3.1,0,0,1,2.7,17.839V5.144a1.012,1.012,0,1,1,2.024,0v12.7a1.069,1.069,0,0,0,1.067,1.068H8.551c3.668,0,6.835,0,9.231-2.13a14.513,14.513,0,0,0,3.244-4.728l.68,1.335c.005.012.01.027.015.037q.218.442.44.856a14.437,14.437,0,0,1-3.035,4.011C16.155,20.93,12.461,20.93,8.551,20.93Z" transform="translate(0 0)" fill="#fff"/>
    </g>
  </g>
</svg>
